<svg width="1600" height="340" viewBox="0 0 1600 340" fill="none" xmlns="http://www.w3.org/2000/svg">
  <rect width="1600" height="340" rx="28" fill="#141414"/>
  <ellipse cx="800" cy="170" rx="440" ry="112" stroke="#F4EEE5" stroke-opacity="0.2" stroke-width="2"/>
  <ellipse cx="800" cy="170" rx="320" ry="72" stroke="#F4EEE5" stroke-opacity="0.15" stroke-width="2"/>
  <circle cx="800" cy="170" r="36" fill="#F2EBE0"/>
  <text x="752" y="178" fill="#171717" font-family="Arial, Helvetica, sans-serif" font-size="20" font-weight="700">STACK</text>

  <g font-family="Arial, Helvetica, sans-serif" font-size="22" font-weight="700">
    <g>
      <circle cx="1240" cy="170" r="28" fill="#C88A57">
        <animateMotion dur="10s" repeatCount="indefinite" rotate="auto">
          <mpath href="#orbitOuter"/>
        </animateMotion>
      </circle>
      <text x="1218" y="178" fill="#171717">
        <animateMotion dur="10s" repeatCount="indefinite" rotate="auto">
          <mpath href="#orbitOuter"/>
        </animateMotion>
        TS
      </text>
    </g>
    <g>
      <circle cx="360" cy="170" r="28" fill="#EEE7DC">
        <animateMotion dur="12s" repeatCount="indefinite" rotate="auto">
          <mpath href="#orbitOuterReverse"/>
        </animateMotion>
      </circle>
      <text x="327" y="178" fill="#171717">
        <animateMotion dur="12s" repeatCount="indefinite" rotate="auto">
          <mpath href="#orbitOuterReverse"/>
        </animateMotion>
        AWS
      </text>
    </g>
    <g>
      <circle cx="1120" cy="170" r="24" fill="#6E8CD7">
        <animateMotion dur="8s" repeatCount="indefinite" rotate="auto">
          <mpath href="#orbitInner"/>
        </animateMotion>
      </circle>
      <text x="1088" y="178" fill="#F9F6F1">
        <animateMotion dur="8s" repeatCount="indefinite" rotate="auto">
          <mpath href="#orbitInner"/>
        </animateMotion>
        SQL
      </text>
    </g>
    <g>
      <circle cx="480" cy="170" r="24" fill="#4F8A5C">
        <animateMotion dur="9s" repeatCount="indefinite" rotate="auto">
          <mpath href="#orbitInnerReverse"/>
        </animateMotion>
      </circle>
      <text x="450" y="178" fill="#F4EEE5">
        <animateMotion dur="9s" repeatCount="indefinite" rotate="auto">
          <mpath href="#orbitInnerReverse"/>
        </animateMotion>
        NODE
      </text>
    </g>
  </g>

  <text x="78" y="60" fill="#F4EEE5" font-family="Arial, Helvetica, sans-serif" font-size="18" letter-spacing="2.6">TOOLS I REACH FOR</text>
  <text x="78" y="300" fill="#9D948A" font-family="Arial, Helvetica, sans-serif" font-size="18" letter-spacing="1.6">next.js / typescript / postgres / aws / c++ / node.js / python</text>

  <defs>
    <path id="orbitOuter" d="M360 170C360 108.144 556.954 58 800 58C1043.05 58 1240 108.144 1240 170C1240 231.856 1043.05 282 800 282C556.954 282 360 231.856 360 170Z"/>
    <path id="orbitOuterReverse" d="M1240 170C1240 231.856 1043.05 282 800 282C556.954 282 360 231.856 360 170C360 108.144 556.954 58 800 58C1043.05 58 1240 108.144 1240 170Z"/>
    <path id="orbitInner" d="M480 170C480 130.235 623.248 98 800 98C976.752 98 1120 130.235 1120 170C1120 209.765 976.752 242 800 242C623.248 242 480 209.765 480 170Z"/>
    <path id="orbitInnerReverse" d="M1120 170C1120 209.765 976.752 242 800 242C623.248 242 480 209.765 480 170C480 130.235 623.248 98 800 98C976.752 98 1120 130.235 1120 170Z"/>
  </defs>
</svg>
